<mxfile host="app.diagrams.net" modified="2023-07-27T09:45:43.974Z" agent="Mozilla/5.0 (Windows NT 10.0; Win64; x64) AppleWebKit/537.36 (KHTML, like Gecko) Chrome/114.0.0.0 Safari/537.36" version="21.6.3" etag="2Zfr5Od1uW2M7czKby9K" type="github">
  <diagram name="第 1 页" id="QFCP1lBzD5QcJSfyVn4G">
    <mxGraphModel>
      <root>
        <mxCell id="0" />
        <mxCell id="1" parent="0" />
      </root>
    </mxGraphModel>
  </diagram>
</mxfile>
